<svg width="512" height="512" viewBox="0 0 512 512" fill="none" xmlns="http://www.w3.org/2000/svg">
  <circle cx="256" cy="256" r="256" fill="hsl(216, 18%, 13%)"/>
  <g filter="url(#filter0_d_1_2)">
    <path d="M256 120C190 120 140 170 140 236C140 266 155 293 178 310C170 320 165 332 165 345C165 375 189 400 219 400C235 400 249 392 256 380C263 392 277 400 293 400C323 400 347 375 347 345C347 332 342 320 334 310C357 293 372 266 372 236C372 170 322 120 256 120Z" stroke="hsl(198, 93%, 60%)" stroke-width="12" stroke-linecap="round" stroke-linejoin="round"/>
    <path d="M256 120V380" stroke="hsl(198, 93%, 60%)" stroke-width="8" stroke-dasharray="1 15" stroke-linecap="round"/>
    <path d="M210 180C190 190 180 210 180 230" stroke="hsl(198, 93%, 60%)" stroke-width="10" stroke-linecap="round"/>
    <path d="M302 180C322 190 332 210 332 230" stroke="hsl(198, 93%, 60%)" stroke-width="10" stroke-linecap="round"/>
  </g>
  <defs>
    <filter id="filter0_d_1_2" x="0" y="0" width="512" height="512" filterUnits="userSpaceOnUse" color-interpolation-filters="sRGB">
      <feFlood flood-opacity="0" result="BackgroundImageFix"/>
      <feColorMatrix in="SourceAlpha" type="matrix" values="0 0 0 0 0 0 0 0 0 0 0 0 0 0 0 0 0 0 127 0" result="hardAlpha"/>
      <feOffset/>
      <feGaussianBlur stdDeviation="40"/>
      <feComposite in2="hardAlpha" operator="out"/>
      <feColorMatrix type="matrix" values="0 0 0 0 0.491667 0 0 0 0 0.871528 0 0 0 0 1 0 0 0 0.4 0"/>
      <feBlend mode="normal" in2="BackgroundImageFix" result="effect1_dropShadow_1_2"/>
      <feBlend mode="normal" in="SourceGraphic" in2="effect1_dropShadow_1_2" result="shape"/>
    </filter>
  </defs>
</svg>
