<svg width="512" height="512" viewBox="0 0 512 512" fill="none" xmlns="http://www.w3.org/2000/svg">
<circle cx="256" cy="256" r="256" fill="hsl(216, 18%, 13%)"/>
<g filter="url(#filter0_d_1_2)">
<path d="M256 104C175.404 104 110 169.404 110 250V250C110 330.596 175.404 396 256 396V396C336.596 396 402 330.596 402 250V250C402 169.404 336.596 104 256 104Z" fill="hsl(218, 18%, 10%)"/>
<path d="M256 128C298.113 128 332.5 160.887 332.5 201.5C332.5 228.625 319.438 252.25 299.125 266.313C306.938 274.625 311.5 285.375 311.5 297C311.5 318.563 294.125 336 273.5 336C269.375 336 265.5 335.313 262 334.375C251.5 348.688 233.125 359.5 212 359.5C178.625 359.5 151.5 332.625 151.5 299.5C151.5 274.188 167.313 252.5 188.875 244.438C183.125 237.313 179.5 228.125 179.5 218C179.5 192.813 200.125 172.5 225.5 172.5C241.125 172.5 254.875 180.313 263.375 191.375C270.125 188.688 277.375 187 285 187C281.875 153.375 256 128 256 128Z" stroke="hsl(198, 93%, 60%)" stroke-width="12"/>
</g>
<defs>
<filter id="filter0_d_1_2" x="0" y="0" width="512" height="512" filterUnits="userSpaceOnUse" color-interpolation-filters="sRGB">
<feFlood flood-opacity="0" result="BackgroundImageFix"/>
<feColorMatrix in="SourceAlpha" type="matrix" values="0 0 0 0 0 0 0 0 0 0 0 0 0 0 0 0 0 0 127 0" result="hardAlpha"/>
<feOffset/>
<feGaussianBlur stdDeviation="55"/>
<feComposite in2="hardAlpha" operator="out"/>
<feColorMatrix type="matrix" values="0 0 0 0 0.491667 0 0 0 0 0.871528 0 0 0 0 1 0 0 0 0.25 0"/>
<feBlend mode="normal" in2="BackgroundImageFix" result="effect1_dropShadow_1_2"/>
<feBlend mode="normal" in="SourceGraphic" in2="effect1_dropShadow_1_2" result="shape"/>
</filter>
</defs>
</svg>
